<svg id="Layer_1" data-name="Layer 1" xmlns="http://www.w3.org/2000/svg" xmlns:xlink="http://www.w3.org/1999/xlink" viewBox="0 0 62.87 52"><defs><style>.cls-1{opacity:0.6;}.cls-2{fill:url(#linear-gradient);}.cls-3{fill:url(#linear-gradient-2);}.cls-4{fill:none;stroke:#fff;stroke-linecap:round;stroke-linejoin:round;stroke-width:1.25px;}</style><linearGradient id="linear-gradient" x1="-1119.86" y1="-1312.01" x2="-1051.84" y2="-1312.01" gradientTransform="matrix(0.79, 0.62, -0.62, 0.79, 75.17, 1725.17)" gradientUnits="userSpaceOnUse"><stop offset="0" stop-color="#b224b3"/><stop offset="1" stop-color="#3c24b2"/></linearGradient><linearGradient id="linear-gradient-2" x1="-3690.76" y1="3537.58" x2="-3683.33" y2="3537.08" gradientTransform="translate(-4842.92 -198.89) rotate(-131.06)" xlink:href="#linear-gradient"/></defs><title>adauga-in-cos</title><g class="cls-1"><path class="cls-2" d="M61.29,0H6A6,6,0,0,0,0,6V46a6,6,0,0,0,6,6H48.75a26.33,26.33,0,0,0,2.15-4.59l5-14,5.39-15.11A27.19,27.19,0,0,0,61.29,0Z"/></g><g class="cls-1"><path class="cls-3" d="M55.9,33.4l-.59-2.79h0a7.73,7.73,0,0,0-2.9-6L28.51,5.47a12.47,12.47,0,0,1-1.4-1.3L23.25,0H6A6,6,0,0,0,0,6V46a6,6,0,0,0,6,6H59.87Z"/></g><g id="Shopping-E-commerce_Carts_shopping-cart-add" data-name="Shopping-E-commerce / Carts / shopping-cart-add"><g id="Group_155" data-name="Group 155"><g id="shopping-cart-add"><path id="Oval_67" data-name="Oval 67" class="cls-4" d="M20.26,34.87A1.57,1.57,0,1,0,18.7,33.3,1.57,1.57,0,0,0,20.26,34.87Z"/><path id="Shape_1172" data-name="Shape 1172" class="cls-4" d="M12.44,14h2.82a1,1,0,0,1,1,.8l4,16.93h4.17"/><path id="Shape_1173" data-name="Shape 1173" class="cls-4" d="M34.85,25,36,21.63a1,1,0,0,0-1-1.37H17.56"/><path id="Shape_1174" data-name="Shape 1174" class="cls-4" d="M19.53,28.61h4.88"/><path id="Oval_68" data-name="Oval 68" class="cls-4" d="M31.22,38A5.22,5.22,0,1,0,26,32.78,5.22,5.22,0,0,0,31.22,38Z"/><path id="Shape_1175" data-name="Shape 1175" class="cls-4" d="M31.22,30.7v4.17"/><path id="Shape_1176" data-name="Shape 1176" class="cls-4" d="M29.13,32.78h4.17"/></g></g></g></svg>