<!-- Generated by IcoMoon.io -->
<svg version="1.1" xmlns="http://www.w3.org/2000/svg" width="920" height="1024" viewBox="0 0 920 1024">
<title></title>
<g id="icomoon-ignore">
</g>
<path fill="#683b0d" d="M173.559 1006.644c-9.546 0-17.356 9.546-17.356 0v-69.424c0-9.546 7.81-17.356 17.356-17.356s17.356 7.81 17.356 17.356v69.424c0 9.546-7.81 0-17.356 0z"></path>
<path fill="#683b0d" d="M69.424 1006.644c-9.546 0-17.356 9.546-17.356 0v-69.424c0-9.546 7.81-17.356 17.356-17.356s17.356 7.81 17.356 17.356v69.424c0 9.546-7.81 0-17.356 0z"></path>
<path fill="#027e2a" d="M138.847 867.797c0 38.342-31.082 69.424-69.424 69.424s-69.424-31.082-69.424-69.424c0-38.342 31.082-69.424 69.424-69.424s69.424 31.082 69.424 69.424z"></path>
<path fill="#0296e5" d="M399.186 0c-143.837 0-260.339 116.502-260.339 260.339 0 78.753 26.468 155.119 75.281 216.949l185.058 234.305 185.058-234.305c48.814-61.831 75.281-138.197 75.281-216.949 0-143.837-116.502-260.339-260.339-260.339z"></path>
<path fill="#43dcfe" d="M555.39 260.339c0 86.269-69.935 156.203-156.203 156.203s-156.203-69.935-156.203-156.203c0-86.269 69.935-156.203 156.203-156.203s156.203 69.935 156.203 156.203z"></path>
<path fill="#0276b4" d="M399.186 347.119c-47.946 0-86.78-38.834-86.78-86.78s38.834-86.78 86.78-86.78c9.546 0 17.356 7.81 17.356 17.356s-7.81 17.356-17.356 17.356c-28.854 0-52.068 23.214-52.068 52.068s23.214 52.068 52.068 52.068c9.546 0 17.356 7.81 17.356 17.356s-7.81 17.356-17.356 17.356z"></path>
<path fill="#eaeae8" d="M572.746 1006.644h-277.695v-208.271l138.847-208.271 138.847 190.915v225.627z"></path>
<path fill="#d32b39" d="M572.746 781.017l-138.847-190.915h260.339l138.847 190.915h-260.339z"></path>
<path fill="#cbcbcb" d="M572.746 781.017h260.339v225.627h-260.339v-225.627z"></path>
<path fill="#0276b4" d="M433.898 781.017c28.854 0 52.068 23.214 52.068 52.068v173.559h-104.136v-173.559c0-28.854 23.214-52.068 52.068-52.068z"></path>
<path fill="#0292c9" d="M642.169 850.441h121.492v86.78h-121.492v-86.78z"></path>
<path fill="#43dcfe" d="M642.169 850.441h104.136v69.424h-104.136v-69.424z"></path>
<path fill="#961b20" d="M781.017 711.593h-63.783l50.549 69.424h-42.956l-50.549-69.424h-43.824l50.549 69.424h-42.956l-50.549-69.424h-65.302l-25.166-34.712h65.302l-61.614-84.61c-0.434-0.651-0.868-1.302-1.302-2.169h42.739l63.132 86.78h43.824l-63.132-86.78h42.956l63.132 86.78h65.302l25.166 34.712c-0.434 0-1.085 0-1.519 0v0z"></path>
<path fill="#02a437" d="M173.559 728.949v0c28.854 0 52.068 23.214 52.068 52.068v104.136c0 28.854-23.214 52.068-52.068 52.068v0c-28.854 0-52.068-23.214-52.068-52.068v-104.136c0-28.854 23.214-52.068 52.068-52.068z"></path>
<path fill="#a8a8a8" d="M902.508 1024h-885.153c-9.546 0-17.356-7.81-17.356-17.356s7.81-17.356 17.356-17.356h885.153c9.546 0 17.356 7.81 17.356 17.356s-7.81 17.356-17.356 17.356z"></path>
</svg>
