<?xml version="1.0" encoding="utf-8"?>
<!-- Generator: Adobe Illustrator 21.0.0, SVG Export Plug-In . SVG Version: 6.00 Build 0)  -->
<svg version="1.1" id="Layer_1" xmlns="http://www.w3.org/2000/svg" xmlns:xlink="http://www.w3.org/1999/xlink" x="0px" y="0px"
	 viewBox="0 0 125.7 104" style="enable-background:new 0 0 125.7 104;" xml:space="preserve">
<style type="text/css">
	.st0{fill:url(#SVGID_1_);}
	.st1{opacity:0.6;}
	.st2{fill:url(#SVGID_2_);}
	.st3{fill:url(#SVGID_3_);}
	.st4{fill:url(#SVGID_4_);}
	.st5{fill:url(#SVGID_5_);}
	.st6{fill:url(#SVGID_6_);}
	.st7{fill:#FFFFFF;}
	.st8{fill:url(#SVGID_7_);}
	.st9{fill:url(#SVGID_8_);}
	.st10{fill:url(#SVGID_9_);}
	.st11{fill:url(#SVGID_10_);}
	.st12{fill:url(#SVGID_11_);}
	.st13{fill:url(#SVGID_12_);}
	.st14{fill:url(#SVGID_13_);}
	.st15{fill:url(#SVGID_14_);}
	.st16{fill:url(#SVGID_15_);}
	.st17{fill:url(#SVGID_16_);}
	.st18{fill:url(#SVGID_17_);}
	.st19{fill:url(#SVGID_18_);}
	.st20{fill:url(#SVGID_19_);}
	.st21{fill:url(#SVGID_20_);}
	.st22{fill:url(#SVGID_21_);}
	.st23{fill:url(#SVGID_22_);}
	.st24{fill:url(#SVGID_23_);}
	.st25{fill:url(#SVGID_24_);}
	.st26{fill:url(#SVGID_25_);}
	.st27{fill:url(#SVGID_26_);}
	.st28{fill:url(#SVGID_27_);}
	.st29{fill:url(#SVGID_28_);}
	.st30{fill:url(#SVGID_29_);}
	.st31{fill:url(#SVGID_30_);}
	.st32{fill:url(#SVGID_31_);}
	.st33{fill:url(#SVGID_32_);}
	.st34{fill:url(#SVGID_33_);}
	.st35{fill:url(#SVGID_34_);}
	.st36{fill:url(#SVGID_35_);}
	.st37{fill:url(#SVGID_36_);}
	.st38{fill:url(#SVGID_37_);}
	.st39{fill:url(#SVGID_38_);}
	.st40{fill:url(#SVGID_39_);}
	.st41{fill:url(#SVGID_40_);}
	.st42{fill:url(#SVGID_41_);}
	.st43{fill:url(#SVGID_42_);}
	.st44{fill:url(#SVGID_43_);}
	.st45{fill:url(#SVGID_44_);}
	.st46{fill:url(#SVGID_45_);}
	.st47{fill:url(#SVGID_46_);}
	.st48{fill:url(#SVGID_47_);}
	.st49{fill:none;stroke:#FFFFFF;stroke-width:2.5;stroke-linecap:round;stroke-linejoin:round;}
	.st50{fill:url(#SVGID_48_);}
	.st51{fill:url(#SVGID_49_);}
	.st52{fill:url(#SVGID_50_);}
	.st53{fill:url(#SVGID_51_);}
	.st54{fill:url(#SVGID_52_);}
	.st55{fill:url(#SVGID_53_);}
	.st56{fill:url(#SVGID_54_);}
	.st57{fill:url(#SVGID_55_);}
	.st58{fill:url(#SVGID_56_);}
	.st59{fill:url(#SVGID_57_);}
	.st60{fill:url(#SVGID_58_);}
</style>
<g>
	<g>
		<g>
			<g class="st1">
				
					<linearGradient id="SVGID_1_" gradientUnits="userSpaceOnUse" x1="-1053.1342" y1="-1504.0881" x2="-917.1008" y2="-1504.0881" gradientTransform="matrix(0.7876 0.6162 -0.6162 0.7876 -94.0755 1837.1302)">
					<stop  offset="0" style="stop-color:#B224B3"/>
					<stop  offset="1" style="stop-color:#3C24B2"/>
				</linearGradient>
				<path class="st0" d="M122.6,0H12C5.4,0,0,5.4,0,12v80c0,6.6,5.4,12,12,12h85.5c1.7-2.9,3.2-6,4.3-9.2l10-28l10.8-30.2
					C126.8,24.7,126.8,11.8,122.6,0z"/>
			</g>
			<g class="st1">
				
					<linearGradient id="SVGID_2_" gradientUnits="userSpaceOnUse" x1="-4602.3926" y1="3426.606" x2="-4587.5303" y2="3425.615" gradientTransform="matrix(-0.6569 -0.754 0.754 -0.6569 -5109.3115 -699.1107)">
					<stop  offset="0" style="stop-color:#B224B3"/>
					<stop  offset="1" style="stop-color:#3C24B2"/>
				</linearGradient>
				<path class="st2" d="M111.8,66.8l-1.2-5.6v0c0-4.7-2.1-9.1-5.8-12.1L57,10.9c-1-0.8-1.9-1.7-2.8-2.6L46.5,0H12C5.4,0,0,5.4,0,12
					v80c0,6.6,5.4,12,12,12h107.7L111.8,66.8z"/>
			</g>
		</g>
	</g>
	<g id="Interface-Essential__x2F__Login_x2F_Logout__x2F__login-3">
		<g id="Group_34">
			<g id="login-3">
				<path id="Shape_116" class="st49" d="M47.8,52h25"/>
				<path id="Shape_117" class="st49" d="M56.2,43.7L47.8,52l8.3,8.3"/>
				<path id="Shape_118" class="st49" d="M43.7,32.2h15.7c0.6,0,1,0.5,1,1v5.2"/>
				<path id="Shape_119" class="st49" d="M60.4,65.6v5.2c0,0.6-0.5,1-1,1H43.7"/>
				<path id="Shape_120" class="st49" d="M24.9,71.2c0,0.5,0.3,0.9,0.8,1L42.4,76c0.3,0.1,0.6,0,0.9-0.2c0.2-0.2,0.4-0.5,0.4-0.8V29
					c0-0.3-0.1-0.6-0.4-0.8C43,28,42.7,28,42.4,28l-16.7,3.7c-0.5,0.1-0.8,0.5-0.8,1V71.2z"/>
				<path id="Oval_27" class="st49" d="M36.4,55.1c1.7,0,3.1-1.4,3.1-3.1c0-1.7-1.4-3.1-3.1-3.1c-1.7,0-3.1,1.4-3.1,3.1
					C33.2,53.7,34.6,55.1,36.4,55.1z"/>
			</g>
		</g>
	</g>
</g>
</svg>
