<svg id="Layer_1" data-name="Layer 1" xmlns="http://www.w3.org/2000/svg" xmlns:xlink="http://www.w3.org/1999/xlink" viewBox="0 0 62.87 52"><defs><style>.cls-1{opacity:0.6;}.cls-2{fill:url(#linear-gradient);}.cls-3{fill:url(#linear-gradient-2);}.cls-4{fill:none;stroke:#fff;stroke-linecap:round;stroke-linejoin:round;stroke-width:1.4px;}</style><linearGradient id="linear-gradient" x1="-1159.65" y1="-1427.44" x2="-1091.63" y2="-1427.44" gradientTransform="matrix(0.79, 0.62, -0.62, 0.79, 35.38, 1840.6)" gradientUnits="userSpaceOnUse"><stop offset="0" stop-color="#b224b3"/><stop offset="1" stop-color="#3c24b2"/></linearGradient><linearGradient id="linear-gradient-2" x1="-4001.13" y1="3678.81" x2="-3993.7" y2="3678.32" gradientTransform="translate(-5153.29 -340.12) rotate(-131.06)" xlink:href="#linear-gradient"/></defs><title>continua-finalizeaza-comanda</title><g class="cls-1"><path class="cls-2" d="M61.29,0H6A6,6,0,0,0,0,6V46a6,6,0,0,0,6,6H48.75a26.33,26.33,0,0,0,2.15-4.59l5-14,5.39-15.11A27.19,27.19,0,0,0,61.29,0Z"/></g><g class="cls-1"><path class="cls-3" d="M55.9,33.4l-.59-2.79h0a7.73,7.73,0,0,0-2.9-6L28.51,5.47a12.47,12.47,0,0,1-1.4-1.3L23.25,0H6A6,6,0,0,0,0,6V46a6,6,0,0,0,6,6H59.87Z"/></g><g id="Arrows-Diagrams_Arrows_arrow-button-right-1" data-name="Arrows-Diagrams / Arrows / arrow-button-right-1"><g id="Group_17" data-name="Group 17"><g id="Light_17" data-name="Light 17"><path id="Shape_19" data-name="Shape 19" class="cls-4" d="M15.44,13.78,26.91,25.25a1.06,1.06,0,0,1,0,1.5L15.44,38.22"/><path id="Shape_20" data-name="Shape 20" class="cls-4" d="M27.66,13.78,39.13,25.25a1.06,1.06,0,0,1,0,1.5L27.66,38.22"/></g></g></g></svg>