<?xml version="1.0" encoding="utf-8"?>
<!-- Generator: Adobe Illustrator 21.0.0, SVG Export Plug-In . SVG Version: 6.00 Build 0)  -->
<svg version="1.1" id="Layer_1" xmlns="http://www.w3.org/2000/svg" xmlns:xlink="http://www.w3.org/1999/xlink" x="0px" y="0px"
	 viewBox="0 0 1427.2 1278.1" style="enable-background:new 0 0 1427.2 1278.1;" xml:space="preserve">
<style type="text/css">
	.st0{fill-rule:evenodd;clip-rule:evenodd;fill:url(#SVGID_1_);}
	.st1{fill-rule:evenodd;clip-rule:evenodd;fill:#474B4D;}
</style>
<linearGradient id="SVGID_1_" gradientUnits="userSpaceOnUse" x1="1067.791" y1="974.2627" x2="359.5041" y2="67.6967">
	<stop  offset="0" style="stop-color:#B224B3"/>
	<stop  offset="1" style="stop-color:#3C24B2"/>
</linearGradient>
<path class="st0" d="M761.7,849.9l-84.4-86.3l-20-19c-101.9-96.8-229.5-239.1-229.5-386.8c0-76.5,30.1-149.3,84.2-203.4
	c54.1-54.1,126.9-84.2,203.4-84.2c76.5,0,149.3,30.1,203.4,84.2c17.7,17.7,33.1,37.7,45.7,59.4c23.6-6.3,47.5-11.2,71.7-14.8
	c-17.3-34.9-40.3-66.8-67.8-94.3C901.2,37.5,810.7,0,715.5,0c-95.2,0-185.7,37.5-253,104.8c-67.3,67.3-104.8,157.8-104.8,253
	c0,173,132,324.3,251.5,437.6c19.7,18.7,39.5,37.4,58.8,56.6l101.7,107.8l25.6,27.4l25.6-27.3c66.1-70.6,151.4-115.2,245.7-135.1
	c41.6-8.8,87.9-14,130.4-10.6l37.9,3V224.5l-31-3.8c-176.2-21.5-355.1,35.2-486.2,155l-4,3.6l-4-3.6
	C644.1,315.5,563,269.2,477.9,242.8c-10.2,21.2-17.6,43.6-21.9,66.7c85.5,26.2,167.6,75.9,229.4,140.4c9.3,9.7,14.4,13.8,28.2,13.8
	c13.3,0,19.3-4.5,28.2-13.8c36.8-38.4,80.3-71,126.8-96.7c89.5-49.5,188.3-72,290.4-66l5.5,0.3v456.1l-5.7,0.2
	C1028.8,748,897.8,794.2,800.4,882l-4.2,3.8L761.6,850L761.7,849.9L761.7,849.9z M360,218.9c-8.7,22.3-15.3,45.3-19.6,68.8
	c-24-1.8-48.2-2-72.2-0.6l-5.5,0.3v456.1l5.7,0.2C398.5,748,529,794.7,626.7,881.9l4.3,3.8l17.9-19.2l2.2,2.2l46,48.8L632,987.3
	L606.4,960C540.3,889.4,455,844.9,360.7,825c-41.6-8.8-87.9-14-130.4-10.6l-37.9,3V224.5l31-3.8C268.7,215.2,314.6,214.5,360,218.9
	L360,218.9z M1001.3,325.6c22.7-5.8,45.8-10,69.2-12.6c1.9,14.9,2.8,29.8,2.8,44.8c0,168.7-143.1,329.4-258.8,440.5
	c-12,11.6-24.1,23.1-36.1,34.8l-49-50.1c12.1-11.8,24.3-23.5,36.5-35.2c98.5-94.5,237.1-246.7,237.1-390
	C1003.1,347.1,1002.5,336.3,1001.3,325.6z"/>
<path class="st1" d="M124.2,1225c0,7.3-1.5,14-4.5,20.2c-3,6.2-6.9,11.5-11.9,15.9c-4.9,4.4-10.6,7.9-17.1,10.4
	c-6.5,2.5-13.3,3.7-20.4,3.7L0,1274.9v-174.3h62.8c7.6,0,14.6,1.1,21,3.4c6.5,2.3,12.1,5.5,16.9,9.8c4.8,4.3,8.5,9.5,11.2,15.7
	c2.7,6.2,4,13.1,4,20.8c0,6.5-1.5,12.9-4.4,19c-2.9,6.1-6.8,11.3-11.5,15.5c3.8,1.9,7.2,4.3,10.1,7.2c3,2.9,5.5,6.1,7.6,9.7
	c2.1,3.6,3.7,7.3,4.8,11.3C123.7,1216.9,124.2,1220.9,124.2,1225L124.2,1225z M870,1124.6l-86.2,126.6H870v22.5H756.4v-22.3v-0.2
	l85.9-126.1h-85.9v-22.5H870V1124.6L870,1124.6z M993.2,1097.9c12.4,0,24.1,2.4,35,7.1c10.9,4.7,20.5,11.2,28.6,19.3
	c8.2,8.2,14.6,17.7,19.3,28.6c4.7,10.9,7.1,22.6,7.1,35c0,12.4-2.4,24.1-7.1,35c-4.7,10.9-11.2,20.5-19.3,28.6
	c-8.2,8.2-17.7,14.6-28.6,19.3c-10.9,4.7-22.6,7.1-35,7.1c-12.6,0-24.3-2.4-35.3-7.1c-10.9-4.7-20.4-11.2-28.5-19.3
	c-8.1-8.2-14.5-17.7-19.2-28.6c-4.7-10.9-7.1-22.6-7.1-35c0-12.4,2.4-24.1,7.1-35c4.7-10.9,11.1-20.5,19.2-28.6
	c8.1-8.2,17.6-14.6,28.5-19.3C968.9,1100.3,980.7,1097.9,993.2,1097.9L993.2,1097.9z M993.2,1255.6c9.3,0,18-1.8,26.1-5.3
	c8.1-3.5,15.1-8.3,21.2-14.4c6-6.1,10.8-13.3,14.3-21.5c3.5-8.2,5.3-17,5.3-26.3s-1.8-18-5.3-26.2c-3.5-8.2-8.3-15.3-14.3-21.4
	c-6-6.1-13.1-11-21.2-14.6c-8.1-3.6-16.8-5.4-26.1-5.4c-9.3,0-18,1.8-26.2,5.4c-8.2,3.6-15.3,8.4-21.3,14.6
	c-6,6.1-10.8,13.3-14.3,21.4c-3.5,8.2-5.3,16.9-5.3,26.2s1.8,18.1,5.3,26.3c3.5,8.2,8.3,15.4,14.3,21.5c6,6.1,13.1,10.9,21.3,14.4
	C975.2,1253.9,983.9,1255.6,993.2,1255.6L993.2,1255.6z M1234.5,1102.3h23.3v171.4H1235l-85.7-130v130h-23v-171.4h22.8l85.5,129.8
	V1102.3L1234.5,1102.3z M1427.2,1124.9h-91.1v51.9h84.5v22.5h-84.5v51.9h91.1v22.5h-114.3v-171.4h114.3V1124.9L1427.2,1124.9z
	 M82.6,1150.9c0-4.2-0.8-7.8-2.4-10.9c-1.6-3.1-3.7-5.6-6.4-7.6c-2.7-2-5.8-3.6-9.3-4.6c-3.5-1-7.1-1.5-10.9-1.5H33.8v47.9
	c3.6,0.1,6.9,0.2,9.8,0.2c2.9,0,6.2,0,10,0c3.8,0,7.4-0.4,10.9-1.3c3.5-0.9,6.6-2.3,9.3-4.1c2.7-1.9,4.8-4.3,6.4-7.3
	C81.8,1158.7,82.6,1155.1,82.6,1150.9L82.6,1150.9z M89.1,1223c0-3.6-0.7-7-2.1-10c-1.4-3.1-3.3-5.6-5.7-7.7
	c-2.4-2.1-5.2-3.7-8.3-4.9c-3.1-1.2-6.5-1.7-10.1-1.7c-4.9-0.1-9.8-0.2-14.6-0.1c-4.8,0.1-9.7,0.1-14.6,0.1v48.2H59
	c3.6,0,7.3-0.4,10.9-1.3c3.6-0.9,6.9-2.3,9.7-4.2c2.8-2,5.1-4.4,6.9-7.4C88.2,1230.8,89.1,1227.2,89.1,1223L89.1,1223z
	 M338.3,1187.7c0,12.5-2.4,24.3-7.3,35.3c-4.9,11-11.5,20.6-19.9,28.8c-8.4,8.1-18.2,14.6-29.4,19.3c-11.2,4.7-23.1,7.1-35.7,7.1
	c-12.6,0-24.6-2.4-35.8-7.1c-11.2-4.7-21.1-11.1-29.5-19.3c-8.4-8.1-15-17.7-19.9-28.7c-4.9-11-7.3-22.8-7.3-35.4
	c0-12.6,2.4-24.5,7.3-35.5c4.9-11,11.5-20.6,19.9-28.8c8.4-8.1,18.3-14.5,29.5-19.2c11.3-4.6,23.2-7,35.8-7c12.6,0,24.5,2.3,35.7,7
	c11.2,4.6,21,11.1,29.4,19.3c8.4,8.2,15,17.8,19.9,28.8C335.9,1163.3,338.3,1175.1,338.3,1187.7L338.3,1187.7z M304.6,1187.7
	c0-8-1.5-15.5-4.6-22.6c-3.1-7-7.3-13.2-12.6-18.5c-5.3-5.3-11.5-9.5-18.7-12.6c-7.1-3.1-14.7-4.7-22.7-4.7
	c-8.1,0-15.8,1.6-22.9,4.7c-7.2,3.1-13.4,7.3-18.7,12.6c-5.3,5.3-9.5,11.5-12.6,18.5c-3.1,7-4.6,14.6-4.6,22.6
	c0,7.8,1.5,15.3,4.6,22.4c3.1,7.1,7.3,13.3,12.6,18.6c5.3,5.3,11.5,9.5,18.7,12.6c7.1,3.1,14.8,4.7,22.9,4.7c8,0,15.6-1.6,22.7-4.7
	c7.2-3.1,13.4-7.3,18.7-12.6c5.3-5.3,9.5-11.5,12.6-18.6C303,1203,304.6,1195.6,304.6,1187.7L304.6,1187.7z M554.9,1187.7
	c0,12.5-2.4,24.3-7.3,35.3c-4.9,11-11.5,20.6-19.9,28.8c-8.4,8.1-18.2,14.6-29.4,19.3c-11.2,4.7-23.1,7.1-35.7,7.1
	c-12.6,0-24.6-2.4-35.8-7.1c-11.2-4.7-21.1-11.1-29.5-19.3c-8.4-8.1-15-17.7-19.9-28.7c-4.9-11-7.3-22.8-7.3-35.4
	c0-12.6,2.4-24.5,7.3-35.5c4.9-11,11.5-20.6,19.9-28.8c8.4-8.1,18.3-14.5,29.5-19.2c11.3-4.6,23.2-7,35.8-7c12.6,0,24.5,2.3,35.7,7
	c11.2,4.6,21,11.1,29.4,19.3c8.4,8.2,15,17.8,19.9,28.8C552.4,1163.3,554.9,1175.1,554.9,1187.7L554.9,1187.7z M521.1,1187.7
	c0-8-1.5-15.5-4.6-22.6c-3.1-7-7.3-13.2-12.6-18.5c-5.3-5.3-11.5-9.5-18.7-12.6c-7.1-3.1-14.7-4.7-22.7-4.7
	c-8.1,0-15.8,1.6-22.9,4.7c-7.2,3.1-13.4,7.3-18.7,12.6c-5.3,5.3-9.5,11.5-12.6,18.5c-3.1,7-4.6,14.6-4.6,22.6
	c0,7.8,1.5,15.3,4.6,22.4c3.1,7.1,7.3,13.3,12.6,18.6c5.3,5.3,11.5,9.5,18.7,12.6c7.1,3.1,14.8,4.7,22.9,4.7c8,0,15.6-1.6,22.7-4.7
	c7.2-3.1,13.4-7.3,18.7-12.6c5.3-5.3,9.5-11.5,12.6-18.6C519.6,1203,521.1,1195.6,521.1,1187.7L521.1,1187.7z M740.7,1274.9h-44
	l-69.7-77.1v77.1h-33.8v-174.3h33.8v77.8l71.3-77.8h40.1l-78.7,85.6L740.7,1274.9z"/>
</svg>
