<?xml version="1.0" encoding="utf-8"?>
<!-- Generator: Adobe Illustrator 21.0.0, SVG Export Plug-In . SVG Version: 6.00 Build 0)  -->
<svg version="1.1" id="Layer_1" xmlns="http://www.w3.org/2000/svg" xmlns:xlink="http://www.w3.org/1999/xlink" x="0px" y="0px"
	 viewBox="0 0 808 179.7" style="enable-background:new 0 0 808 179.7;" xml:space="preserve">
<style type="text/css">
	.st0{fill-rule:evenodd;clip-rule:evenodd;fill:url(#SVGID_1_);}
	.st1{fill-rule:evenodd;clip-rule:evenodd;fill:#474B4D;}
</style>
<g>
	<linearGradient id="SVGID_1_" gradientUnits="userSpaceOnUse" x1="159.3387" y1="177.3427" x2="30.411" y2="12.3227">
		<stop  offset="0" style="stop-color:#B224B3"/>
		<stop  offset="1" style="stop-color:#3C24B2"/>
	</linearGradient>
	<path class="st0" d="M103.6,154.7L88.3,139l-3.6-3.4C66.1,117.9,42.9,92,42.9,65.1c0-13.9,5.5-27.2,15.3-37
		c9.9-9.8,23.1-15.3,37-15.3c13.9,0,27.2,5.5,37,15.3c3.2,3.2,6,6.9,8.3,10.8c4.3-1.1,8.7-2,13.1-2.7c-3.1-6.3-7.3-12.2-12.3-17.2
		C129,6.8,112.5,0,95.2,0C77.9,0,61.4,6.8,49.2,19.1C36.9,31.3,30.1,47.8,30.1,65.1c0,31.5,24,59,45.8,79.7
		c3.6,3.4,7.2,6.8,10.7,10.3l18.5,19.6l4.7,5l4.7-5c12-12.9,27.6-21,44.7-24.6c7.6-1.6,16-2.6,23.7-1.9l6.9,0.5V40.9l-5.6-0.7
		c-32.1-3.9-64.6,6.4-88.5,28.2L94.9,69l-0.7-0.7C82.2,57.4,67.4,49,52,44.2c-1.9,3.9-3.2,7.9-4,12.1c15.6,4.8,30.5,13.8,41.8,25.6
		c1.7,1.8,2.6,2.5,5.1,2.5c2.4,0,3.5-0.8,5.1-2.5c6.7-7,14.6-12.9,23.1-17.6c16.3-9,34.3-13.1,52.9-12l1,0.1v83l-1,0
		c-23.7,0.8-47.5,9.2-65.3,25.2l-0.8,0.7L103.6,154.7L103.6,154.7L103.6,154.7z M30.5,39.9c-1.6,4.1-2.8,8.2-3.6,12.5
		c-4.4-0.3-8.8-0.4-13.1-0.1l-1,0.1v83l1,0c23.7,0.8,47.4,9.3,65.2,25.1l0.8,0.7l3.3-3.5l0.4,0.4l8.4,8.9L80,179.7l-4.7-5
		c-12-12.9-27.6-21-44.7-24.6c-7.6-1.6-16-2.6-23.7-1.9L0,148.8V40.9l5.6-0.7C13.9,39.2,22.2,39,30.5,39.9L30.5,39.9z M147.2,59.3
		c4.1-1.1,8.3-1.8,12.6-2.3c0.3,2.7,0.5,5.4,0.5,8.2c0,30.7-26,60-47.1,80.2c-2.2,2.1-4.4,4.2-6.6,6.3l-8.9-9.1
		c2.2-2.1,4.4-4.3,6.6-6.4c17.9-17.2,43.2-44.9,43.2-71C147.6,63.2,147.5,61.2,147.2,59.3z"/>
	<path class="st1" d="M296,109.8c0,2.9-0.6,5.5-1.8,7.9c-1.2,2.4-2.7,4.5-4.7,6.3c-1.9,1.7-4.2,3.1-6.7,4.1c-2.5,1-5.2,1.5-8,1.5
		l-27.7-0.1V60.9h24.7c3,0,5.7,0.4,8.3,1.3c2.5,0.9,4.8,2.2,6.6,3.9c1.9,1.7,3.4,3.7,4.4,6.2c1.1,2.4,1.6,5.2,1.6,8.2
		c0,2.6-0.6,5.1-1.7,7.4c-1.1,2.4-2.7,4.4-4.5,6.1c1.5,0.7,2.8,1.7,4,2.8c1.2,1.1,2.2,2.4,3,3.8c0.8,1.4,1.5,2.9,1.9,4.5
		C295.7,106.6,296,108.2,296,109.8L296,109.8z M589,70.3l-33.9,49.7H589v8.9h-44.6v-8.8v-0.1l33.8-49.6h-33.8v-8.9H589V70.3
		L589,70.3z M637.5,59.8c4.9,0,9.5,0.9,13.8,2.8c4.3,1.9,8,4.4,11.3,7.6c3.2,3.2,5.7,7,7.6,11.3c1.9,4.3,2.8,8.9,2.8,13.8
		c0,4.9-0.9,9.5-2.8,13.8c-1.9,4.3-4.4,8.1-7.6,11.3c-3.2,3.2-7,5.7-11.3,7.6c-4.3,1.9-8.9,2.8-13.8,2.8c-4.9,0-9.6-0.9-13.9-2.8
		c-4.3-1.9-8-4.4-11.2-7.6c-3.2-3.2-5.7-7-7.6-11.3c-1.9-4.3-2.8-8.9-2.8-13.8c0-4.9,0.9-9.5,2.8-13.8c1.9-4.3,4.4-8.1,7.6-11.3
		c3.2-3.2,6.9-5.7,11.2-7.6C627.9,60.8,632.5,59.8,637.5,59.8L637.5,59.8z M637.5,121.8c3.7,0,7.1-0.7,10.2-2.1
		c3.2-1.4,5.9-3.3,8.3-5.7c2.4-2.4,4.2-5.2,5.6-8.5c1.4-3.2,2.1-6.7,2.1-10.3s-0.7-7.1-2.1-10.3c-1.4-3.2-3.3-6-5.6-8.4
		c-2.4-2.4-5.1-4.3-8.3-5.7c-3.2-1.4-6.6-2.1-10.2-2.1c-3.7,0-7.1,0.7-10.3,2.1c-3.2,1.4-6,3.3-8.4,5.7c-2.4,2.4-4.2,5.2-5.6,8.4
		c-1.4,3.2-2.1,6.6-2.1,10.3s0.7,7.1,2.1,10.3c1.4,3.2,3.3,6.1,5.6,8.5c2.4,2.4,5.2,4.3,8.4,5.7
		C630.4,121.1,633.8,121.8,637.5,121.8L637.5,121.8z M732.3,61.6h9.1v67.4h-8.9l-33.7-51.1v51.1h-9V61.6h8.9l33.6,51V61.6
		L732.3,61.6z M808,70.4h-35.8v20.4h33.2v8.9h-33.2v20.4H808v8.9h-44.9V61.6H808V70.4L808,70.4z M279.6,80.7c0-1.7-0.3-3.1-0.9-4.3
		c-0.6-1.2-1.5-2.2-2.5-3c-1.1-0.8-2.3-1.4-3.6-1.8c-1.4-0.4-2.8-0.6-4.3-0.6h-7.8v18.8c1.4,0.1,2.7,0.1,3.9,0.1c1.1,0,2.5,0,3.9,0
		c1.5,0,2.9-0.2,4.3-0.5c1.4-0.3,2.6-0.9,3.6-1.6c1.1-0.7,1.9-1.7,2.5-2.9C279.3,83.7,279.6,82.3,279.6,80.7L279.6,80.7z M282.2,109
		c0-1.4-0.3-2.7-0.8-3.9c-0.5-1.2-1.3-2.2-2.2-3c-0.9-0.8-2-1.5-3.3-1.9c-1.2-0.5-2.6-0.7-4-0.7c-1.9-0.1-3.9-0.1-5.7,0
		c-1.9,0-3.8,0-5.7,0v18.9h9.9c1.4,0,2.9-0.2,4.3-0.5c1.4-0.3,2.7-0.9,3.8-1.7c1.1-0.8,2-1.7,2.7-2.9
		C281.8,112.1,282.2,110.6,282.2,109L282.2,109z M380.1,95.1c0,4.9-1,9.5-2.9,13.9c-1.9,4.3-4.5,8.1-7.8,11.3
		c-3.3,3.2-7.2,5.7-11.5,7.6c-4.4,1.9-9.1,2.8-14,2.8c-5,0-9.6-0.9-14.1-2.8c-4.4-1.9-8.3-4.4-11.6-7.6c-3.3-3.2-5.9-6.9-7.8-11.3
		c-1.9-4.3-2.9-8.9-2.9-13.9c0-5,1-9.6,2.9-14c1.9-4.3,4.5-8.1,7.8-11.3c3.3-3.2,7.2-5.7,11.6-7.5c4.4-1.8,9.1-2.7,14.1-2.7
		c5,0,9.6,0.9,14,2.7c4.4,1.8,8.2,4.4,11.5,7.6c3.3,3.2,5.9,7,7.8,11.3C379.1,85.5,380.1,90.2,380.1,95.1L380.1,95.1z M366.8,95.1
		c0-3.1-0.6-6.1-1.8-8.9c-1.2-2.8-2.9-5.2-4.9-7.3c-2.1-2.1-4.5-3.7-7.3-5c-2.8-1.2-5.8-1.8-8.9-1.8c-3.2,0-6.2,0.6-9,1.8
		c-2.8,1.2-5.3,2.9-7.3,5c-2.1,2.1-3.7,4.5-4.9,7.3c-1.2,2.8-1.8,5.7-1.8,8.9c0,3.1,0.6,6,1.8,8.8c1.2,2.8,2.9,5.2,4.9,7.3
		c2.1,2.1,4.5,3.7,7.3,5c2.8,1.2,5.8,1.8,9,1.8c3.1,0,6.1-0.6,8.9-1.8c2.8-1.2,5.3-2.9,7.3-5c2.1-2.1,3.7-4.5,4.9-7.3
		C366.2,101.1,366.8,98.2,366.8,95.1L366.8,95.1z M465.2,95.1c0,4.9-1,9.5-2.9,13.9c-1.9,4.3-4.5,8.1-7.8,11.3
		c-3.3,3.2-7.2,5.7-11.5,7.6c-4.4,1.9-9.1,2.8-14,2.8c-5,0-9.6-0.9-14.1-2.8c-4.4-1.9-8.3-4.4-11.6-7.6c-3.3-3.2-5.9-6.9-7.8-11.3
		c-1.9-4.3-2.9-8.9-2.9-13.9c0-5,1-9.6,2.9-14c1.9-4.3,4.5-8.1,7.8-11.3c3.3-3.2,7.2-5.7,11.6-7.5c4.4-1.8,9.1-2.7,14.1-2.7
		c5,0,9.6,0.9,14,2.7c4.4,1.8,8.2,4.4,11.5,7.6c3.3,3.2,5.9,7,7.8,11.3C464.2,85.5,465.2,90.2,465.2,95.1L465.2,95.1z M451.9,95.1
		c0-3.1-0.6-6.1-1.8-8.9c-1.2-2.8-2.9-5.2-4.9-7.3c-2.1-2.1-4.5-3.7-7.3-5c-2.8-1.2-5.8-1.8-8.9-1.8c-3.2,0-6.2,0.6-9,1.8
		c-2.8,1.2-5.3,2.9-7.3,5c-2.1,2.1-3.7,4.5-4.9,7.3c-1.2,2.8-1.8,5.7-1.8,8.9c0,3.1,0.6,6,1.8,8.8c1.2,2.8,2.9,5.2,4.9,7.3
		c2.1,2.1,4.5,3.7,7.3,5c2.8,1.2,5.8,1.8,9,1.8c3.1,0,6.1-0.6,8.9-1.8c2.8-1.2,5.3-2.9,7.3-5c2.1-2.1,3.7-4.5,4.9-7.3
		C451.3,101.1,451.9,98.2,451.9,95.1L451.9,95.1z M538.2,129.4h-17.3l-27.4-30.3v30.3h-13.3V60.9h13.3v30.6l28-30.6h15.8l-30.9,33.7
		L538.2,129.4z"/>
</g>
</svg>
