<?xml version="1.0" encoding="utf-8"?>
<!-- Generator: Adobe Illustrator 21.0.0, SVG Export Plug-In . SVG Version: 6.00 Build 0)  -->
<svg version="1.1" id="_x37_7" xmlns="http://www.w3.org/2000/svg" xmlns:xlink="http://www.w3.org/1999/xlink" x="0px" y="0px"
	 viewBox="0 0 104.1 115" style="enable-background:new 0 0 104.1 115;" xml:space="preserve">
<style type="text/css">
	.st0{fill:#980899;}
	.st1{fill:#B224B3;}
	.st2{fill:#E1E4F4;}
	.st3{fill:#EFF1FE;}
	.st4{fill:#D1D7E8;}
	.st5{fill:#C923C9;}
</style>
<g>
	<path class="st0" d="M28.2,34.5V5.1c0-2.5,0.4-2.9,0.9-3.2c0.1,0,0.2-0.1,0.3-0.2c0.5-0.1,1.1-0.1,1.8,0.2c0.5,0.1,1,0.4,1.6,0.7
		l34.7,20c1.8,1.1,3.2,2.5,4,4.1c0.3,0.5,0.5,1.1,0.5,1.6c0.2,0.8,0.3,1.7,0.3,2.6v26.3c-0.3,0.1-0.5,0.2-0.7,0.4
		c-0.8,0.5-1.6,1.1-2.2,1.9V32.2c0-0.7-0.1-1.5-0.2-2.2c-0.5-2.4-1.8-4.2-4-5.4l0,0L35.1,7.2c-0.3-0.2-0.5-0.3-0.7-0.4
		c-0.1,0-0.2-0.1-0.2-0.1L32.8,6c-0.7,0.1-1.2,0.5-1.5,1.5c-0.1,0.5-0.2,1.3-0.2,2v23.2c-0.5,0.1-0.9,0.3-1.4,0.5
		C29.2,33.6,28.8,33.9,28.2,34.5z M77.4,65.1c-0.1,0.2-0.2,0.3-0.3,0.5c-0.7,1.3-1.6,2.3-2.7,2.8c-1.1,0.6-2,0.7-2.7,0.3l0,0
		c-0.1,0-0.1-0.1-0.2-0.1c-0.3-0.2-0.5-0.5-0.6-0.9c-0.1-0.1-0.1-0.3-0.1-0.5v-0.1c-0.1-0.2-0.1-0.5-0.1-0.6c0-0.1,0-0.2,0-0.3
		c0-0.2,0-0.3,0-0.5c0.1-1,0.4-2,1-3c0.1-0.1,0.1-0.2,0.2-0.4c0.2-0.4,0.4-0.6,0.6-0.9c0,0,0,0,0.1-0.1c0.6-0.8,1.3-1.5,2.1-1.9
		c0.1-0.1,0.3-0.1,0.4-0.2c0.2-0.1,0.4-0.2,0.5-0.2l0,0c0.6-0.2,1.3-0.2,1.7,0.1l0,0c0.1,0,0.1,0,0.1,0.1c0.3,0.2,0.5,0.5,0.7,0.8
		c0.1,0.4,0.2,0.7,0.2,1.2c0.1,0.6,0,1.4-0.1,2.1C78,64,77.7,64.5,77.4,65.1z M35.3,34.7L35.3,34.7c0.1,0,0.1,0.1,0.2,0.1
		c0.3,0.2,0.5,0.5,0.7,0.8c0.2,0.6,0.3,1.3,0.2,2c0,0.5-0.1,0.8-0.2,1.3c-0.2,0.6-0.5,1.4-0.9,2.1c-0.2,0.3-0.4,0.5-0.5,0.8
		c-0.6,0.9-1.4,1.6-2.2,2.1c-0.8,0.5-1.6,0.6-2.2,0.5c-0.2-0.1-0.4-0.1-0.5-0.2l0,0c-0.4-0.3-0.6-0.5-0.8-1C29,43.1,29,43,29,42.8
		v-0.1c0-0.2-0.1-0.4-0.1-0.5v-0.1c0-0.1,0-0.2,0-0.3c0-1.1,0.4-2.3,1-3.5c0.1-0.1,0.1-0.2,0.2-0.4c0.3-0.5,0.5-0.8,0.8-1.2
		c0.2-0.2,0.3-0.4,0.5-0.5c0.5-0.5,0.9-0.8,1.5-1.2c0.3-0.2,0.6-0.3,0.9-0.4l0,0c0.3-0.1,0.5-0.1,0.7-0.2
		C34.6,34.5,35,34.6,35.3,34.7z"/>
	<path class="st1" d="M29.4,1.7l2.8-1.5h0.1C33.1-0.2,34.3,0,36,1l34.7,20c1.7,1,2.9,2.3,3.7,3.8c0.7,1.4,1,2.9,1,4.7v1v3.3v24.6
		l1.7,1c-0.5-0.3-1.1-0.3-1.7-0.1l0,0c-0.2,0.1-0.4,0.1-0.5,0.2c-0.1,0.1-0.3,0.1-0.4,0.2c-0.8,0.5-1.5,1.1-2.1,1.9c0,0,0,0-0.1,0.1
		c-0.2,0.3-0.5,0.5-0.6,0.9c-0.1,0.1-0.1,0.2-0.2,0.4c-0.5,1-0.9,2-1,3c0,0.2,0,0.3,0,0.5c0,0.1,0,0.2,0,0.3c0,0.3,0,0.5,0.1,0.6
		c0,0.1,0,0.1,0,0.1c0,0.2,0.1,0.3,0.1,0.5c0.2,0.4,0.4,0.6,0.6,0.9c0.1,0,0.1,0.1,0.2,0.1l0-0.3L69,67.1c-0.1,0-0.1-0.1-0.1-0.1
		s0,0-0.1,0s-0.2-0.1-0.2-0.2c-0.3-0.2-0.5-0.5-0.6-0.8l0,0c-0.2-0.5-0.3-0.9-0.3-1.6c0-1.3,0.4-2.5,1.1-3.7
		c0.2-0.4,0.4-0.6,0.6-0.9c0.6-0.8,1.4-1.5,2.2-1.9c0.3-0.2,0.5-0.3,0.7-0.4V31.1c0-0.9-0.1-1.8-0.3-2.6c-0.2-0.5-0.4-1.2-0.5-1.6
		c-0.8-1.6-2.1-3-4-4.1l-34.7-20c-0.5-0.4-1.1-0.5-1.6-0.7C30.5,1.7,29.9,1.6,29.4,1.7z M28.2,34.5c0.5-0.5,0.9-0.9,1.5-1.2
		c0.5-0.3,0.9-0.5,1.4-0.5V9.5c0-0.8,0.1-1.5,0.2-2c0.3-0.9,0.7-1.4,1.5-1.5l1.4,0.7c0.1,0,0.2,0.1,0.2,0.1c0,0.3-0.1,0.6-0.1,1
		v26.2l1,0.5c-0.3-0.2-0.6-0.3-1-0.3c-0.3,0-0.5,0.1-0.7,0.2l0,0c-0.3,0.1-0.5,0.2-0.9,0.4c-0.5,0.3-1,0.7-1.5,1.2
		c-0.2,0.2-0.3,0.4-0.5,0.5c-0.3,0.4-0.5,0.7-0.8,1.2c-0.1,0.1-0.1,0.2-0.2,0.4c-0.6,1.2-1,2.4-1,3.5c0,0.1,0,0.2,0,0.3v0.1
		c0,0.2,0,0.4,0.1,0.5c0,0.1,0,0.1,0,0.1c0,0.2,0.1,0.3,0.1,0.5c0.2,0.5,0.5,0.8,0.8,1l-2.4-1.4l-0.3-0.2c-0.1,0-0.1-0.1-0.1-0.1
		s0,0-0.1,0c-0.4-0.3-0.6-0.5-0.8-1l0,0c-0.2-0.5-0.3-0.9-0.3-1.6s0.1-1.4,0.4-2v-0.1c0.2-0.5,0.5-1.1,0.7-1.6
		C27.4,35.5,27.8,34.9,28.2,34.5z"/>
	<path class="st2" d="M34.8,41.8l22.8-13.2c1.6-0.9,3-1.4,4.6-1.4v43.3l-15.9,9.1c-3,1.8-5.8,1.8-8.8,0.2L7.9,62.7
		c-1.4-0.9-2.1-1.6-2.3-2c0-0.2-0.1-0.4-0.1-0.5l0,0c0-0.9,0.7-1.7,2.3-2.6l22.6-13.1c0.6,0.2,1.4,0,2.2-0.5
		C33.4,43.4,34.1,42.7,34.8,41.8z"/>
	<path class="st2" d="M41.5,114.9V89.5c-1.5-0.1-2.9-0.5-4.4-1.4l-34.6-20C0.8,67.3,0,66.3,0,65.3v-5.2c0.1,0.9,0.8,1.7,2.2,2.6
		l34.9,20.1c1.5,0.8,2.9,1.3,4.4,1.4v5.4c1.7,0.1,3.6-0.4,5.3-1.4l54.9-31.8l-5.4,27.7c0,0.8-0.7,1.6-2.2,2.5l-47.3,27.2
		C44.9,114.8,43.1,115.2,41.5,114.9z"/>
	<path class="st3" d="M62.3,70.5l6.4-3.7c0.1,0.1,0.2,0.1,0.2,0.2c0,0,0,0,0.1,0c0,0,0.1,0,0.1,0.1l2.5,1.5L46.7,82.8
		c-1.7,1-3.6,1.5-5.3,1.4c-1.5-0.1-2.9-0.5-4.4-1.4L2.2,62.7C0.8,61.9,0.1,61,0,60.1l0,0c0-1,0.8-1.9,2.5-2.8l25-14.5l2.4,1.4l0,0
		c0.2,0.1,0.4,0.2,0.5,0.2L7.9,57.5c-1.6,0.9-2.4,1.7-2.3,2.6l0,0c0,0.2,0,0.4,0.1,0.5c0.2,0.5,0.9,1.1,2.3,2l29.8,17.2
		c2.8,1.6,5.8,1.6,8.8-0.2L62.3,70.5z M75.4,30.4l26.2,15.2c1.6,0.8,2.4,1.7,2.5,2.6v0.4c-0.1,0.8-0.8,1.6-2.2,2.5L77.4,65.1
		c0.3-0.5,0.5-1.1,0.7-1.6c0.1-0.7,0.2-1.5,0.1-2.1l18-10.3l0.1-0.1c1.2-0.6,1.9-1.3,2.2-1.9c0.2-0.3,0.2-0.5,0.2-0.8
		c-0.1-0.7-0.7-1.5-2-2.3L75.4,33.7V30.4z M62.3,27.3c-1.5,0-3,0.5-4.6,1.4L34.9,41.9c0.2-0.3,0.4-0.5,0.5-0.8
		c0.5-0.7,0.7-1.5,0.9-2.1c0.1-0.5,0.1-0.9,0.2-1.3l20.9-12.1c2.6-1.6,5.2-1.8,7.9-0.8l0,0c2.2,1.3,3.5,3.1,4,5.4l-2.8-1.6
		C65,27.6,63.6,27.3,62.3,27.3z"/>
	<path class="st4" d="M68.7,66.8l-6.4,3.7V27.3c1.4,0,2.8,0.4,4.2,1.2l2.8,1.6c0.2,0.6,0.2,1.4,0.2,2.2v27.4
		c-0.2,0.3-0.4,0.6-0.6,0.9c-0.7,1.3-1.1,2.6-1.1,3.7c0,0.6,0.1,1.1,0.3,1.6l0,0C68.2,66.3,68.4,66.6,68.7,66.8z"/>
	<path class="st4" d="M75.4,33.7l21.1,12.1c1.3,0.7,1.9,1.5,2,2.3c0.1,0.3,0,0.5-0.2,0.8c-0.3,0.6-1,1.3-2.2,1.9l-0.1,0.1L78.2,61.3
		c0-0.4-0.1-0.8-0.2-1.2c-0.2-0.4-0.5-0.6-0.7-0.8l-0.1-0.1l0,0l-1.7-1L75.4,33.7L75.4,33.7z"/>
	<path class="st4" d="M2.5,68.2l34.6,20c1.5,0.8,2.9,1.3,4.4,1.4v25.4c-1-0.2-2-0.5-2.9-1L9.9,97.4c-1.2-0.7-1.8-1.5-1.9-2.2V95
		L2.5,68.2z"/>
	<polygon class="st5" points="18.8,79.8 18.8,79.7 18.7,79.7 	"/>
	<path class="st4" d="M101.6,56.4L46.7,88.2c-1.7,1-3.6,1.5-5.3,1.4v-5.3c1.7,0.1,3.6-0.4,5.3-1.4l24.7-14.3l0.2,0.1l0,0
		c0.7,0.5,1.6,0.4,2.7-0.3c1-0.6,1.9-1.6,2.7-2.8c0.1-0.2,0.2-0.3,0.3-0.5l24.5-14.2c1.4-0.8,2.1-1.6,2.2-2.5v4.9c0,0.1,0,0.2,0,0.2
		C104,54.6,103.3,55.5,101.6,56.4z"/>
</g>
</svg>
